<?xml version="1.0" encoding="UTF-8"?>
<svg id="Layer_2" xmlns="http://www.w3.org/2000/svg" viewBox="0 0 555.27 557.7">
  <defs>
    <style>
      .cls-1 {
        fill: #18eab8;
      }

      .cls-2 {
        fill: #c591e8;
      }

      .cls-3 {
        fill: #ef8e8e;
      }

      .cls-4 {
        fill: #f0c46c;
      }
    </style>
  </defs>
  <g id="Layer_2-2" data-name="Layer_2">
    <g>
      <g id="Layer_1-2">
        <path class="cls-4" d="M362.52,195.26c63.76,27.51,127.52,55.03,192.75,83.17-65.08,28.02-128.94,55.5-192.8,82.98-.28-.18-.57-.37-.86-.55,15.25-26.36,31.37-52.22,47.08-78.33,1.86-3.06,1.82-5.48-.03-8.52-15.66-25.96-31.49-51.81-46.83-77.94.23-.27.46-.54.69-.81h0Z"/>
      </g>
      <g id="Layer_1-2-2">
        <path class="cls-2" d="M359.81,364.96c-27.51,63.76-55.03,127.52-83.17,192.75-28.02-65.09-55.5-128.95-82.98-192.8.18-.28.37-.57.55-.86,26.36,15.25,52.22,31.37,78.33,47.08,3.06,1.86,5.48,1.82,8.52-.03,25.96-15.66,51.81-31.49,77.94-46.83.27.23.54.46.81.69h0Z"/>
      </g>
      <path class="cls-1" d="M193.66,192.75c27.51-63.76,55.03-127.52,83.18-192.75,28.02,65.08,55.5,128.94,82.98,192.8-.18.28-.37.57-.55.86-26.36-15.25-52.22-31.37-78.33-47.08-3.06-1.86-5.48-1.82-8.52.03-25.96,15.66-51.81,31.49-77.94,46.83-.27-.23-.54-.46-.81-.69h0Z"/>
      <g id="Layer_1-2-2" data-name="Layer_1-2">
        <path class="cls-3" d="M192.75,361.42c-63.76-27.51-127.52-55.03-192.75-83.17,65.08-28.02,128.94-55.5,192.8-82.98.28.18.57.37.86.55-15.25,26.36-31.37,52.22-47.08,78.33-1.86,3.06-1.82,5.48.03,8.52,15.66,25.96,31.49,51.81,46.83,77.94-.23.27-.46.54-.69.81h0Z"/>
      </g>
    </g>
  </g>
</svg>