<?xml version="1.0" encoding="UTF-8"?>
<svg id="Layer_2" xmlns="http://www.w3.org/2000/svg" viewBox="0 0 648.85 1000.69">
  <defs>
    <style>
      .cls-1 {
        fill: #18eab8;
      }

      .cls-2 {
        fill: #c591e8;
      }

      .cls-3 {
        fill: #f0c46c;
      }
    </style>
  </defs>
  <g id="Layer_1-2" data-name="Layer_1">
    <g>
      <g id="Layer_2-2">
        <g id="Layer_1-2">
          <path class="cls-3" d="M303,350.36c114.4,49.37,228.81,98.74,345.85,149.24-116.78,50.27-231.36,99.58-345.94,148.9-.51-.33-1.03-.66-1.54-.99,27.37-47.29,56.29-93.7,84.47-140.55,3.34-5.49,3.27-9.83-.05-15.29-28.1-46.58-56.5-92.96-84.02-139.85.41-.49.83-.97,1.24-1.46h0Z"/>
        </g>
      </g>
      <g id="Layer_2-2-2" data-name="Layer_2-2">
        <g id="Layer_1-2-2" data-name="Layer_1-2">
          <path class="cls-2" d="M298.14,654.85c-49.37,114.4-98.74,228.81-149.24,345.85C98.63,883.91,49.31,769.33,0,654.75c.33-.51.66-1.03.99-1.54,47.29,27.37,93.7,56.29,140.55,84.47,5.49,3.34,9.83,3.27,15.29-.05,46.58-28.1,92.96-56.5,139.85-84.02.49.41.97.83,1.46,1.24h0Z"/>
        </g>
      </g>
      <g id="Layer_1-2-3" data-name="Layer_1-2">
        <path class="cls-1" d="M0,345.85C49.37,231.44,98.74,117.04,149.25,0c50.27,116.78,99.58,231.36,148.9,345.94-.33.51-.66,1.03-.99,1.54-47.29-27.37-93.7-56.29-140.55-84.47-5.49-3.34-9.83-3.27-15.29.05-46.58,28.1-92.96,56.5-139.85,84.02-.49-.41-.97-.83-1.46-1.24h0Z"/>
      </g>
    </g>
  </g>
</svg>